<?xml version="1.0" encoding="utf-8"?>
<!-- Generator: Adobe Illustrator 24.1.2, SVG Export Plug-In . SVG Version: 6.00 Build 0)  -->
<svg version="1.1" id="Layer_1" xmlns:ev="http://www.w3.org/2001/xml-events"
	 xmlns="http://www.w3.org/2000/svg" xmlns:xlink="http://www.w3.org/1999/xlink" x="0px" y="0px" viewBox="0 0 1000 1000"
	 style="enable-background:new 0 0 1000 1000;" xml:space="preserve">
<style type="text/css">
	.st0{fill:#FFFFFF;}
</style>
<rect class="st0" width="1000" height="1000"/>
<path d="M862.8,480.5c-1.8,2.8-3.4,6.1-4.2,9.4c-11.3,46.8-56.6,82-104.8,81c-4.7-0.1-7,1.5-9.4,5.3c-17.5,28.4-42.3,48.9-70.9,65.1
	c-33.8,19.1-70.3,26-108.6,24.2c-5.5-0.3-8.9,1.5-12.3,5.4c-34.5,39.3-62.7,82.7-84.4,130.3c-4.6,10.1-9.8,20-14.6,30.1
	c-3.5,7.3-9.5,11.1-17.2,12c-10.3,1.2-20.3-0.2-29.6-5c-6.8-3.5-11.3-8.8-10-16.8c2.8-16.9,6.1-33.6,9.2-50.5
	c0.3-1.6,0.7-3.2,1.1-4.8c-13.7-3-26.7-5.5-39.6-8.9c-20.8-5.5-40.8-13.1-56.2-28.8c-7-7.1-12.3-16-18.6-23.9
	c-1.4-1.7-3.5-3.6-5.5-3.9c-47.4-5.9-81.4-30.6-102.3-73.3c-11.2-23-17.2-47.1-15-72.9c1.2-13.9,5-27.1,11.7-39.4
	c1.8-3.2,1.7-5.9,1-9.4c-12.9-62.2,3-115.3,51.3-157.4c7.3-6.3,16.6-10.3,24.9-15.4c1.7-1,3.7-2.6,4.1-4.3
	c10-37.7,34.4-63.9,66.5-83.9c26.3-16.4,54.8-26.9,86.1-26.5c10.6,0.1,17.7-3.4,25.6-9.5c23.9-18.8,51.8-28.6,81.7-31.9
	c34-3.8,67.9-2.1,100.6,8.9c11.1,3.7,21.4,9.8,32.1,14.6c2,0.9,4.3,1.9,6.4,1.7c47-3.8,90.8,6.2,130.5,31.6
	c42.3,27.1,74,63.5,90.1,111.7C898.8,393.4,890.4,438.5,862.8,480.5z"/>
</svg>
