
        <svg width="2084" height="2084" 
        xmlns="http://www.w3.org/2000/svg"><defs><style type='text/css'>@import url(https://fonts.googleapis.com/css?family=Berlin Sans FB|Acme);
text { font-family: Berlin Sans FB !important; font-kerning:none; font-variant-ligatures:none }</style> </defs><title>Death Note hot</title><svg xmlns="http://www.w3.org/2000/svg" width="2084" height="2084">
<style>text{font-family:'Bronson demo';font-weight:normal;font-style:normal;}</style>
<text transform="translate(955,1647)" font-size="120" style="fill:white">Lawliet</text>
<text transform="translate(896,1116) rotate(-90)" font-size="120" style="fill:white">Light</text>
<text transform="translate(529,412)" font-size="120" style="fill:white">Lawliet</text>
<text transform="translate(1238,986) rotate(-90)" font-size="120" style="fill:white">Light</text>
<text transform="translate(1344,1678)" font-size="97" style="fill:white">Lawliet</text>
<text transform="translate(1232,690) rotate(-90)" font-size="97" style="fill:white">Light</text>
<text transform="translate(956,829) rotate(-90)" font-size="97" style="fill:white">Lawliet</text>
<text transform="translate(911,1354) rotate(-90)" font-size="97" style="fill:white">Light</text>
<text transform="translate(1196,1313) rotate(-90)" font-size="97" style="fill:white">Lawliet</text>
<text transform="translate(629,982)" font-size="75" style="fill:white">Light</text>
<text transform="translate(1297,560) rotate(-90)" font-size="75" style="fill:white">Lawliet</text>
<text transform="translate(1418,1736)" font-size="71" style="fill:white">Light</text>
<text transform="translate(720,1666)" font-size="71" style="fill:white">Lawliet</text>
<text transform="translate(1342,1577)" font-size="71" style="fill:white">Light</text>
<text transform="translate(1141,1541)" font-size="61" style="fill:white">Lawliet</text>
<text transform="translate(1250,1174) rotate(-90)" font-size="61" style="fill:white">Light</text>
<text transform="translate(982,1109) rotate(-90)" font-size="61" style="fill:white">Lawliet</text>
<text transform="translate(864,1493) rotate(-90)" font-size="61" style="fill:white">Light</text>
<text transform="translate(1295,814) rotate(-90)" font-size="61" style="fill:white">Lawliet</text>
<text transform="translate(844,828) rotate(-90)" font-size="61" style="fill:white">Light</text>
<text transform="translate(562,334)" font-size="57" style="fill:white">Lawliet</text>
<text transform="translate(923,373)" font-size="57" style="fill:white">Light</text>
<text transform="translate(1146,761) rotate(-90)" font-size="57" style="fill:white">Lawliet</text>
<text transform="translate(703,1241)" font-size="57" style="fill:white">Light</text>
<text transform="translate(694,451)" font-size="46" style="fill:white">Lawliet</text>
<text transform="translate(1033,1558)" font-size="46" style="fill:white">Light</text>
<text transform="translate(1298,1044) rotate(-90)" font-size="46" style="fill:white">Lawliet</text>
<text transform="translate(663,1705)" font-size="46" style="fill:white">Light</text>
<text transform="translate(977,1258) rotate(-90)" font-size="46" style="fill:white">Lawliet</text>
<text transform="translate(977,509) rotate(-90)" font-size="46" style="fill:white">Light</text>
<text transform="translate(1217,1680)" font-size="39" style="fill:white">Lawliet</text>
<text transform="translate(1145,444)" font-size="39" style="fill:white">Light</text>
<text transform="translate(1116,1410) rotate(-90)" font-size="39" style="fill:white">Lawliet</text>
<text transform="translate(897,893)" font-size="39" style="fill:white">Light</text>
<text transform="translate(1139,891) rotate(-90)" font-size="39" style="fill:white">Lawliet</text>
<text transform="translate(440,404)" font-size="39" style="fill:white">Light</text>
<text transform="translate(894,789) rotate(-90)" font-size="39" style="fill:white">Lawliet</text>
<text transform="translate(815,1335) rotate(-90)" font-size="39" style="fill:white">Light</text>
<text transform="translate(1296,315)" font-size="33" style="fill:white">Lawliet</text>
<text transform="translate(743,1010)" font-size="33" style="fill:white">Light</text>
<text transform="translate(1311,1708)" font-size="33" style="fill:white">Lawliet</text>
<text transform="translate(784,1526)" font-size="33" style="fill:white">Light</text>
<text transform="translate(1151,574) rotate(-90)" font-size="33" style="fill:white">Lawliet</text>
<text transform="translate(798,1622) rotate(-90)" font-size="33" style="fill:white">Light</text>
<text transform="translate(1448,1783)" font-size="33" style="fill:white">Lawliet</text>
<text transform="translate(1065,1450) rotate(-90)" font-size="33" style="fill:white">Light</text>
<text transform="translate(929,1131) rotate(-90)" font-size="33" style="fill:white">Lawliet</text>
<text transform="translate(880,1595)" font-size="33" style="fill:white">Light</text>
<text transform="translate(938,1387) rotate(-90)" font-size="33" style="fill:white">Lawliet</text>
<text transform="translate(622,1735)" font-size="33" style="fill:white">Light</text>
<text transform="translate(858,684) rotate(-90)" font-size="33" style="fill:white">Lawliet</text>
<text transform="translate(1443,1606)" font-size="33" style="fill:white">Light</text>
<text transform="translate(1338,1514)" font-size="30" style="fill:white">Lawliet</text>
<text transform="translate(929,1538)" font-size="30" style="fill:white">Light</text>
<text transform="translate(771,1690)" font-size="30" style="fill:white">Lawliet</text>
<text transform="translate(1199,1012)" font-size="30" style="fill:white">Light</text>
<text transform="translate(1222,1273) rotate(-90)" font-size="30" style="fill:white">Lawliet</text>
<text transform="translate(633,1229)" font-size="30" style="fill:white">Light</text>
<text transform="translate(1132,1269) rotate(-90)" font-size="30" style="fill:white">Lawliet</text>
<text transform="translate(1302,884) rotate(-90)" font-size="30" style="fill:white">Light</text>
<text transform="translate(906,1450) rotate(-90)" font-size="30" style="fill:white">Lawliet</text>
<text transform="translate(1519,1585)" font-size="30" style="fill:white">Light</text>
<text transform="translate(590,1005)" font-size="28" style="fill:white">Lawliet</text>
<text transform="translate(813,327)" font-size="28" style="fill:white">Light</text>
<text transform="translate(1135,988) rotate(-90)" font-size="28" style="fill:white">Lawliet</text>
<text transform="translate(1115,1336)" font-size="28" style="fill:white">Light</text>
<text transform="translate(980,860) rotate(-90)" font-size="28" style="fill:white">Lawliet</text>
<text transform="translate(467,362)" font-size="28" style="fill:white">Light</text>
<text transform="translate(577,295)" font-size="27" style="fill:white">Lawliet</text>
<text transform="translate(1214,413) rotate(-90)" font-size="27" style="fill:white">Light</text>
<text transform="translate(935,1223) rotate(-90)" font-size="27" style="fill:white">Lawliet</text>
<text transform="translate(414,437)" font-size="27" style="fill:white">Light</text>
<text transform="translate(776,1078)" font-size="24" style="fill:white">Lawliet</text>
<text transform="translate(1297,340)" font-size="24" style="fill:white">Light</text>
<text transform="translate(1406,289)" font-size="24" style="fill:white">Lawliet</text>
<text transform="translate(970,1493)" font-size="24" style="fill:white">Light</text>
<text transform="translate(1155,707)" font-size="24" style="fill:white">Lawliet</text>
<text transform="translate(1250,1565)" font-size="24" style="fill:white">Light</text>
<text transform="translate(1120,1666)" font-size="24" style="fill:white">Lawliet</text>
<text transform="translate(1656,1620)" font-size="24" style="fill:white">Light</text>
<text transform="translate(834,1194) rotate(-90)" font-size="24" style="fill:white">Lawliet</text>
<text transform="translate(878,600) rotate(-90)" font-size="24" style="fill:white">Light</text>
<text transform="translate(805,912) rotate(-90)" font-size="24" style="fill:white">Lawliet</text>
<text transform="translate(981,411)" font-size="24" style="fill:white">Light</text>
<text transform="translate(1010,1618) rotate(-90)" font-size="24" style="fill:white">Lawliet</text>
<text transform="translate(1047,329)" font-size="24" style="fill:white">Light</text>
<text transform="translate(1287,1122) rotate(-90)" font-size="24" style="fill:white">Lawliet</text>
<text transform="translate(1570,1609)" font-size="24" style="fill:white">Light</text>
<text transform="translate(955,1665)" font-size="23" style="fill:white">Lawliet</text>
<text transform="translate(587,1761)" font-size="23" style="fill:white">Light</text>
<text transform="translate(619,430)" font-size="23" style="fill:white">Lawliet</text>
<text transform="translate(897,850)" font-size="23" style="fill:white">Light</text>
<text transform="translate(1134,947)" font-size="23" style="fill:white">Lawliet</text>
<text transform="translate(921,956) rotate(-90)" font-size="23" style="fill:white">Light</text>
<text transform="translate(974,751) rotate(-90)" font-size="23" style="fill:white">Lawliet</text>
<text transform="translate(1582,1701)" font-size="23" style="fill:white">Light</text>
<text transform="translate(1160,894) rotate(-90)" font-size="23" style="fill:white">Lawliet</text>
<text transform="translate(1364,1727)" font-size="23" style="fill:white">Light</text>
<text transform="translate(975,588) rotate(-90)" font-size="23" style="fill:white">Lawliet</text>
<text transform="translate(885,504)" font-size="23" style="fill:white">Light</text>
</svg></svg>